Coordinates
version=1
nRows=9
nColumns=63
inDegrees=yes

Units are S.I. units (second, meters, Newtons, ...)
If the header above contains a line with 'inDegrees', this indicates whether rotational values are in degrees (yes) or radians (no).

endheader
time	pelvis_tilt	pelvis_list	pelvis_rotation	pelvis_tx	pelvis_ty	pelvis_tz	hip_flexion_r	hip_adduction_r	hip_rotation_r	knee_angle_r	knee_angle_r_beta	ankle_angle_r	subtalar_angle_r	mtp_angle_r	hip_flexion_l	hip_adduction_l	hip_rotation_l	knee_angle_l	knee_angle_l_beta	ankle_angle_l	subtalar_angle_l	mtp_angle_l	L5_S1_Flex_Ext	L5_S1_Lat_Bending	L5_S1_axial_rotation	L4_L5_Flex_Ext	L4_L5_Lat_Bending	L4_L5_axial_rotation	L3_L4_Flex_Ext	L3_L4_Lat_Bending	L3_L4_axial_rotation	L2_L3_Flex_Ext	L2_L3_Lat_Bending	L2_L3_axial_rotation	L1_L2_Flex_Ext	L1_L2_Lat_Bending	L1_L2_axial_rotation	L1_T12_Flex_Ext	L1_T12_Lat_Bending	L1_T12_axial_rotation	Abs_r3	Abs_r2	Abs_r1	Abs_t1	Abs_t2	neck_flexion	neck_bending	neck_rotation	arm_flex_r	arm_add_r	arm_rot_r	elbow_flex_r	pro_sup_r	wrist_flex_r	wrist_dev_r	arm_flex_l	arm_add_l	arm_rot_l	elbow_flex_l	pro_sup_l	wrist_flex_l	wrist_dev_l
1.466667	1.279991	-3.607224	86.982458	0.160618	0.772355	0.750509	0.227807	-0.535699	10.792631	3.244505	0.056627	22.830339	-6.916919	0.000000	2.383928	-0.835892	-6.507212	5.901080	0.102993	25.868606	4.910805	0.000000	-0.014918	-0.185601	0.238447	-0.027705	-0.246850	0.253349	-0.024509	-0.451271	0.253349	-0.017050	-0.451271	0.208641	-0.013853	-0.378478	0.193738	-0.008524	-0.287496	0.178835	-0.106560	-2.099559	1.326168	0.000000	0.000000	15.611036	-0.458168	2.463877	-209.688912	-128.073644	-198.527560	149.896415	39.588173	26.453167	12.607712	-65.481095	-46.391341	-58.514370	149.938678	74.228492	46.914582	-10.568348
1.483333	1.125861	-3.513467	86.966719	0.162151	0.771875	0.750790	0.178120	-0.621260	11.236105	3.302123	0.057633	22.978219	-7.372973	0.000000	2.143862	-0.684609	-5.476319	5.634171	0.098335	25.551830	3.575614	0.000000	-0.029382	-0.239761	0.503391	-0.054565	-0.318882	0.534853	-0.048272	-0.582955	0.534853	-0.033581	-0.582955	0.440467	-0.027284	-0.488921	0.409005	-0.016789	-0.371390	0.377543	-0.209872	-2.712225	2.799708	0.000000	0.000000	15.690074	-0.589586	0.043143	-210.334494	-132.456801	-199.287236	149.898279	38.232249	26.571952	12.949434	-59.618474	-45.683284	-57.219326	149.944620	73.889173	41.549273	-10.025918
1.500000	0.986551	-3.515387	86.968807	0.163526	0.771217	0.750616	0.151119	-0.705060	11.885904	3.283760	0.057312	22.976937	-8.049112	0.000000	1.979773	-0.537368	-4.359010	5.366365	0.093661	25.257322	2.070023	0.000000	-0.034391	-0.289930	0.703961	-0.063868	-0.385607	0.747959	-0.056502	-0.704936	0.747959	-0.039306	-0.704936	0.615966	-0.031936	-0.591226	0.571969	-0.019651	-0.449102	0.527971	-0.245655	-3.279749	3.915221	0.000000	0.000000	16.036407	-0.564237	-2.067403	-211.823886	-135.773817	-200.560012	149.897493	37.067494	26.564137	13.482848	-54.493906	-44.773358	-56.993808	149.941158	72.105631	37.647127	-8.358188
1.516667	0.878967	-3.616243	86.981226	0.164690	0.770395	0.749951	0.151078	-0.771351	12.700000	3.193555	0.055738	22.839983	-8.880743	0.000000	1.897390	-0.412465	-3.243078	5.104318	0.089087	25.010853	0.497635	0.000000	-0.028365	-0.330663	0.790543	-0.052677	-0.439781	0.839952	-0.046601	-0.803973	0.839952	-0.032418	-0.803973	0.691725	-0.026340	-0.674287	0.642316	-0.016208	-0.512196	0.592907	-0.202609	-3.740521	4.396763	0.000000	0.000000	16.629113	-0.301544	-3.489910	-214.135696	-137.399292	-202.511705	149.893610	36.376978	26.174716	14.113510	-50.639537	-43.324645	-57.722881	149.923373	69.456242	35.178441	-6.229404
1.533333	0.826964	-3.812293	86.970070	0.165591	0.769409	0.748794	0.183358	-0.798054	13.639436	3.040648	0.053069	22.597822	-9.779377	0.000000	1.892872	-0.332959	-2.196368	4.851474	0.084674	24.834449	-1.078153	0.000000	-0.011166	-0.352435	0.696837	-0.020737	-0.468739	0.740390	-0.018345	-0.856911	0.740390	-0.012762	-0.856911	0.609733	-0.010369	-0.718686	0.566180	-0.006380	-0.545922	0.522628	-0.079760	-3.986816	3.875601	0.000000	0.000000	17.475977	0.206243	-3.635580	-216.283065	-136.599649	-204.477188	149.886308	35.875962	25.060268	15.089815	-47.391859	-41.166698	-57.824513	149.901086	67.182105	34.048117	-4.822689
1.550000	0.792997	-4.057158	86.923508	0.166360	0.768390	0.747338	0.224935	-0.814286	14.690836	2.842572	0.049612	22.262429	-10.753522	0.000000	1.938419	-0.272985	-1.364113	4.626099	0.080741	24.708764	-2.469831	0.000000	0.012490	-0.362738	0.490727	0.023195	-0.482442	0.521398	0.020520	-0.881961	0.521398	0.014275	-0.881961	0.429386	0.011598	-0.739695	0.398716	0.007137	-0.561881	0.368045	0.089216	-4.103365	2.729278	0.000000	0.000000	18.467327	0.805454	-2.865531	-219.389909	-133.775596	-207.426406	149.878700	35.427638	23.425767	16.055443	-45.777906	-39.770522	-57.898957	149.879522	65.624111	34.134950	-4.267860
1.566667	0.800100	-4.326390	86.830629	0.166945	0.767493	0.745741	0.277501	-0.799428	15.687025	2.635070	0.045991	21.877884	-11.570381	0.000000	2.017052	-0.252724	-0.742746	4.433604	0.077381	24.589861	-3.671306	0.000000	0.038747	-0.362303	0.248748	0.071957	-0.481863	0.264295	0.063657	-0.880903	0.264295	0.044284	-0.880903	0.217655	0.035980	-0.738808	0.202108	0.022140	-0.561207	0.186561	0.276764	-4.098441	1.383464	0.000000	0.000000	19.468369	1.357245	-1.705604	-221.939144	-129.652741	-209.776475	149.871065	34.634858	21.707215	17.262551	-48.245388	-38.761810	-60.205017	149.859688	65.107799	35.430389	-4.486417
1.583333	0.854322	-4.602561	86.678614	0.167339	0.766809	0.744122	0.339347	-0.745646	16.602274	2.439804	0.042583	21.435061	-12.216508	0.000000	2.115863	-0.280093	-0.365120	4.280315	0.074706	24.453814	-4.640740	0.000000	0.064891	-0.352847	0.032074	0.120509	-0.469286	0.034079	0.106610	-0.857912	0.034079	0.074164	-0.857912	0.028065	0.060258	-0.719525	0.026060	0.037079	-0.546560	0.024056	0.463511	-3.991473	0.178387	0.000000	0.000000	20.420979	1.803369	-0.535541	-224.971554	-124.804514	-212.473751	149.864475	33.413441	20.360791	18.634992	-55.358991	-37.695763	-65.353259	149.842841	65.637025	37.916867	-5.464057
1.600000	0.915228	-4.871648	86.508137	0.167632	0.766350	0.742591	0.408717	-0.684492	17.394302	2.274477	0.039697	20.946450	-12.727207	0.000000	2.238573	-0.319676	-0.188689	4.179630	0.072948	24.287430	-5.376948	0.000000	0.088614	-0.342311	-0.156047	0.164564	-0.455273	-0.165800	0.145583	-0.832294	-0.165800	0.101277	-0.832294	-0.136541	0.082287	-0.698040	-0.126788	0.050634	-0.530239	-0.117035	0.632959	-3.872287	-0.867885	0.000000	0.000000	21.308244	2.192298	0.538611	-228.050239	-119.614124	-215.072691	149.859443	31.935559	19.521307	20.033515	-67.998590	-36.335207	-74.497800	149.828475	67.587511	41.592013	-7.886059
